<svg width="105" height="28" viewBox="0 0 105 28" fill="none" xmlns="http://www.w3.org/2000/svg">
<g clip-path="url(#clip0_42_647)">
<path d="M41.8586 13.9595C41.8787 11.7531 42.6453 10.903 44.3398 10.903C46.0142 10.903 46.7001 11.6519 46.7001 13.9595H41.8586ZM44.5012 18.6557C42.605 18.6557 41.9191 17.7448 41.8989 15.9027H48.9998L49.1611 14.1012C49.1611 10.5184 47.5675 8.83829 44.36 8.83829C41.1928 8.83829 39.3975 10.741 39.3975 14.9514C39.3975 18.9998 40.7289 20.8418 44.1583 20.8418C46.1756 20.8418 48.7779 20.3155 48.7779 20.3155L48.7375 18.4532C48.7173 18.4532 46.2966 18.6557 44.5012 18.6557Z" fill="black"/>
<path d="M55.6164 18.6152C55.1524 18.6152 53.9017 18.514 53.9017 18.514V11.5305C53.9017 11.5305 55.2533 11.0649 56.4636 11.0649C57.9968 11.0649 58.6625 12.077 58.6625 14.668C58.6625 17.4816 58.1582 18.6152 55.6164 18.6152ZM56.7662 8.83829C55.4752 8.83829 53.9017 9.52652 53.9017 9.52652V4.32433H51.4204V20.5786C51.4204 20.5786 54.406 20.862 55.6164 20.862C59.7115 20.862 61.2043 19.4653 61.2043 14.7085C61.2043 10.3767 59.8729 8.83829 56.7662 8.83829Z" fill="black"/>
<path d="M68.0432 8.83829C64.634 8.83829 63.2622 10.5589 63.2622 14.668C63.2622 19.0807 64.4726 20.8215 68.0028 20.8215C69.1729 20.8215 71.4927 20.4167 71.4927 20.4167L71.4322 18.4127C71.4322 18.4127 69.6167 18.5949 68.7492 18.5949C66.268 18.5949 65.804 17.6031 65.804 14.668C65.804 12.0163 66.3487 11.0649 68.7291 11.0649C69.5965 11.0649 71.412 11.2471 71.412 11.2471L71.5129 9.26337C71.4927 9.28361 69.2737 8.83829 68.0432 8.83829Z" fill="black"/>
<path d="M78.654 18.7164C76.5157 18.7164 76.0719 17.4209 76.0719 14.7692C76.0719 12.1175 76.6367 10.9637 78.654 10.9637C80.6713 10.9637 81.2362 12.1175 81.2362 14.7692C81.2362 17.4209 80.7722 18.7164 78.654 18.7164ZM78.654 8.83829C74.8212 8.83829 73.5503 11.0447 73.5503 14.7692C73.5503 18.5747 74.7405 20.8418 78.654 20.8418C82.5878 20.8418 83.7578 18.5949 83.7578 14.7692C83.7578 11.0447 82.4667 8.83829 78.654 8.83829Z" fill="black"/>
<path d="M88.5591 20.5786V11.6722C88.5591 11.6722 89.8098 11.0649 91.1412 11.0649C92.8761 11.0649 93.1787 12.1985 93.1787 14.4858V20.5786H95.6599V14.4251C95.6599 10.6601 94.8732 8.83829 91.706 8.83829C90.2132 8.83829 88.5389 9.8099 88.5389 9.8099V9.10143H86.0576V20.5989H88.5591V20.5786Z" fill="black"/>
<path d="M104.899 11.2268V9.10143H101.732V5.76151H99.2505V9.10143H97.7778V11.2471H99.2505V16.5707C99.2505 19.8702 100.057 20.8418 102.639 20.8418C103.446 20.8418 104.98 20.5382 104.98 20.5382L104.859 18.5342C104.859 18.5342 103.628 18.5949 102.982 18.5949C101.792 18.5949 101.732 17.9877 101.732 16.2671V11.2066H104.899V11.2268Z" fill="black"/>
<path d="M30.8444 14L23.2594 27.1775H8.17003L0.62536 14L8.21038 0.822466H23.2997L30.8444 14ZM31.4697 14L23.6023 0.275932H7.88761L0 14L7.86744 27.7241H23.5821L31.4697 14Z" fill="black"/>
</g>
<defs>
<clipPath id="clip0_42_647">
<rect width="105" height="27.4481" fill="white" transform="translate(0 0.275932)"/>
</clipPath>
</defs>
</svg>
