<svg width="450" height="116" viewBox="0 0 450 116" fill="none" xmlns="http://www.w3.org/2000/svg">
<path d="M179.395 57.6725C179.481 48.3733 182.767 44.79 190.029 44.79C197.205 44.79 200.144 47.9467 200.144 57.6725H179.395ZM190.72 77.4655C182.594 77.4655 179.654 73.6263 179.568 65.8627H210L210.692 58.2697C210.692 43.1691 203.862 36.088 190.115 36.088C176.542 36.088 168.847 44.1075 168.847 61.8529C168.847 78.9158 174.553 86.6794 189.251 86.6794C197.896 86.6794 209.049 84.4612 209.049 84.4612L208.876 76.6123C208.79 76.6123 198.415 77.4655 190.72 77.4655Z" fill="white"/>
<path d="M238.357 77.2948C236.369 77.2948 231.009 76.8682 231.009 76.8682V47.4348C231.009 47.4348 236.801 45.4725 241.988 45.4725C248.559 45.4725 251.412 49.7383 251.412 60.6585C251.412 72.5172 249.251 77.2948 238.357 77.2948ZM243.285 36.088C237.752 36.088 231.009 38.9887 231.009 38.9887V17.0629H220.374V85.5703C220.374 85.5703 233.17 86.7647 238.357 86.7647C255.908 86.7647 262.305 80.878 262.305 60.8291C262.305 42.5719 256.599 36.088 243.285 36.088Z" fill="white"/>
<path d="M291.614 36.088C277.003 36.088 271.124 43.3397 271.124 60.6585C271.124 79.257 276.311 86.5941 291.441 86.5941C296.455 86.5941 306.398 84.8878 306.398 84.8878L306.138 76.4417C306.138 76.4417 298.357 77.2095 294.64 77.2095C284.006 77.2095 282.017 73.0291 282.017 60.6585C282.017 49.4823 284.352 45.4726 294.553 45.4726C298.271 45.4726 306.052 46.2404 306.052 46.2404L306.484 37.8796C306.398 37.9649 296.888 36.088 291.614 36.088Z" fill="white"/>
<path d="M337.089 77.7214C327.925 77.7214 326.023 72.2613 326.023 61.0851C326.023 49.9089 328.444 45.046 337.089 45.046C345.735 45.046 348.156 49.9089 348.156 61.0851C348.156 72.2613 346.167 77.7214 337.089 77.7214ZM337.089 36.088C320.663 36.088 315.216 45.3872 315.216 61.0851C315.216 77.1242 320.317 86.6794 337.089 86.6794C353.948 86.6794 358.962 77.2095 358.962 61.0851C358.962 45.3872 353.429 36.088 337.089 36.088Z" fill="white"/>
<path d="M379.539 85.5703V48.032C379.539 48.032 384.899 45.4726 390.605 45.4726C398.04 45.4726 399.337 50.2502 399.337 59.8907V85.5703H409.971V59.6347C409.971 43.7663 406.599 36.088 393.026 36.088C386.628 36.088 379.452 40.1831 379.452 40.1831V37.1971H368.818V85.6556H379.539V85.5703Z" fill="white"/>
<path d="M449.568 46.1551V37.197H435.994V23.1202H425.36V37.197H419.049V46.2404H425.36V68.678C425.36 82.5843 428.818 86.6794 439.885 86.6794C443.343 86.6794 449.914 85.3997 449.914 85.3997L449.395 76.9535C449.395 76.9535 444.121 77.2095 441.354 77.2095C436.254 77.2095 435.994 74.6501 435.994 67.3983V46.0697H449.568V46.1551Z" fill="white"/>
<path d="M132.19 57.8431L99.683 113.383H35.0144L2.68012 57.8431L35.1873 2.30349H99.8559L132.19 57.8431ZM134.87 57.8431L101.153 0H33.804L0 57.8431L33.7176 115.686H101.066L134.87 57.8431Z" fill="white"/>
</svg>
